<?xml version="1.0" encoding="utf-8"?>
<!-- Generator: Adobe Illustrator 22.0.1, SVG Export Plug-In . SVG Version: 6.00 Build 0)  -->
<svg version="1.1" id="Layer_1" xmlns="http://www.w3.org/2000/svg" xmlns:xlink="http://www.w3.org/1999/xlink" x="0px" y="0px"
	 width="30px" height="30px" viewBox="0 0 30 30" style="enable-background:new 0 0 30 30;" xml:space="preserve">
<style type="text/css">
	.st0{display:none;fill:#E4E4E4;}
	.st1{fill:#FFFFFF;}
</style>
<g>
	<circle class="st0" cx="15" cy="15" r="15"/>
	<path class="st1" d="M21.8,20.6v-4.7c0-2.5-1.3-3.7-3.1-3.7c-1.4,0-2.1,0.8-2.4,1.3v-1.2h-2.7c0,0.8,0,8.2,0,8.2h2.7V16
		c0-0.2,0-0.5,0.1-0.7c0.2-0.5,0.6-1,1.4-1c1,0,1.4,0.7,1.4,1.8v4.4L21.8,20.6L21.8,20.6z"/>
	<path class="st1" d="M10.7,11.3c0.9,0,1.5-0.6,1.5-1.4c0-0.8-0.6-1.4-1.5-1.4S9.2,9.1,9.2,9.9C9.2,10.6,9.8,11.3,10.7,11.3
		L10.7,11.3z"/>
	<rect x="9.3" y="12.4" class="st1" width="2.7" height="8.2"/>
</g>
</svg>
