<?xml version="1.0" encoding="utf-8"?>
<!-- Generator: Adobe Illustrator 22.0.1, SVG Export Plug-In . SVG Version: 6.00 Build 0)  -->
<svg version="1.1" id="Layer_1" xmlns="http://www.w3.org/2000/svg" xmlns:xlink="http://www.w3.org/1999/xlink" x="0px" y="0px"
	 width="150px" height="63.7px" viewBox="0 0 150 63.7" style="enable-background:new 0 0 150 63.7;" xml:space="preserve">
<style type="text/css">
	.st0{fill:#FFFFFF;}
</style>
<g>
	<rect width="150" height="63.7"/>
	<path class="st0" d="M18.3,15.3L15,33h3l0.5-3.9h3.3l0.5,3.9h3l-3.3-17.7H18.3z M19,26.5l1.2-7.6h0l1.2,7.6H19z"/>
	<polygon class="st0" points="29.5,19.2 29.6,19.2 32.3,33 33.8,33 36.6,19.2 36.6,19.2 36.6,33 39.3,33 39.3,15.3 35.2,15.3 
		33.1,25.7 33,25.7 30.9,15.3 26.9,15.3 26.9,33 29.5,33 	"/>
	<polygon class="st0" points="48.6,25.4 48.6,25.4 44.9,15.3 42.1,15.3 42.1,33 44.8,33 44.8,22 44.9,22 48.7,33 51.4,33 51.4,15.3 
		48.6,15.3 	"/>
	<polygon class="st0" points="62.7,30.4 57.2,30.4 57.2,25.2 61.2,25.2 61.2,22.5 57.2,22.5 57.2,18 62.4,18 62.4,15.3 54.2,15.3 
		54.2,33 62.7,33 	"/>
	<path class="st0" d="M66.8,19.5c0-1.1,0.5-1.7,1.5-1.7c0.7,0,1.5,0.4,1.6,2l2.9-0.3c-0.3-2.5-1.7-4.3-4.2-4.3c-3,0-4.7,1.6-4.7,4.4
		c0,5.1,6.2,6,6.2,9.5c0,1.1-0.7,1.6-1.8,1.6c-1,0-1.7-0.9-1.8-2.7l-2.9,0.4c0.1,2.7,1.7,4.9,4.6,4.9c2.8,0,4.8-1.6,4.8-4.5
		C73,23.9,66.8,22.5,66.8,19.5"/>
	<polygon class="st0" points="76.5,33 79.5,33 79.5,18 82.5,18 82.5,15.3 73.5,15.3 73.5,18 76.5,18 	"/>
	<polygon class="st0" points="88.3,22.1 88.3,22.1 86.1,15.3 83,15.3 86.7,25.7 86.7,33 89.8,33 89.8,25.7 93.5,15.3 90.4,15.3 	"/>
	<path class="st0" d="M133.9,34.2c0.3-0.5,0.3-1.2,0.4-1.5c0.2-0.3,0.8-0.2,0.8-0.4c0-0.1-0.5-0.2-0.6-0.3c-0.3-0.2-0.2-1.2-0.4-1.2
		c-0.3,0-0.5,0.7-0.8,0.4c-0.5-0.6-2.4-1.7-3.2-2c-0.3-0.1,0.2-1.1,0.1-1.2c-0.1-0.1-0.5,0.6-1.1,0.5c-0.4-0.1-0.2-0.9-0.5-0.9
		c-0.1,0-0.5,1.1-0.9,1c-0.3-0.1-0.8-0.2-0.8-0.2v-2.9c0-0.5-0.3-0.9-0.7-0.9l-3.1,0c-0.9,0-0.8-0.6-0.8-0.8c0-3.8,5.5-4.4,5.5-9.4
		c0-2.2-1.4-3.6-3-4.9c-0.1-0.1,0,0.3,0,0.5c0,2.3-8.6,3.5-8.6,8.9c0,4.7,4.7,4.9,4.7,5.6c0,0.1-0.3,0.2-0.3,0.2h-3.6
		c-0.4,0-0.7,0.2-0.7,0.9l0,2.9c-0.3,0.1-0.8-0.4-1-0.4c-0.1,0-0.1,0.9-0.3,1c-0.2,0.1-3.4,1.2-3.7,1.3c-0.5,0.1-0.3-0.7-0.6-0.7
		c-0.2,0-0.2,0.8-0.8,0.8c-0.3,0-0.6-0.3-0.9-0.3c-0.2,0,0.4,0.7,0.4,0.9c0,0.5-1.1,0.7-1.1,1.1c0,0.2,1-0.1,1.1-0.1
		c0.5,0,0.5,0.6,0.7,0.6c0.2,0,0.3-0.7,0.5-0.8c0.3-0.2,0.7,0.1,0.9,0.1c0.3,0-0.2-0.7,0-0.8c0,0,3.5-1.5,3.7-1.4
		c0.2,0.1,0.2,0.5,0.4,0.6c0.2,0.1,0.6-0.8,0.6-0.2v7c-0.4,0.3-1.3,0.4-1.7,0.4c-0.2,0-0.1-0.7-0.3-0.7c-0.2,0-0.5,0.6-0.8,0.6
		c-0.3,0-0.8-0.8-1.1-0.8c-0.2,0,0.4,1,0,1.1c-1.3,0.7-3.4,1.3-3.4,3.4c0,0.4,0.2,1,0.1,1.1c-0.1,0.2-0.5,0.6-0.5,0.8
		c0,0.2,0.9,0.1,1,0.4c0.1,0.1,0.1,0.8,0.3,0.8c0.1,0,0.5-0.5,0.8-0.3c1,0.6,2.8,1.3,3.6,1.7c0.2,0.1,0.1,0.7,0.2,0.8
		c0.2,0.1,0.7-0.6,1.4-0.2c0.1,0.1,0.3,0.3,0.3,0.5l0,2.3c0,0.4,0.2,0.5,0.4,0.6l8.6,1.7c0,0,0.8,0.2,1,0.2c0.3,0,0.7,0,0.6-0.7
		l0-5.3c0-0.1,0.1-0.2,0.2-0.2c0.5,0,0.2,1.4,0.4,1.4c0.2,0,0.4-1,0.7-1c0.4,0,0.7,0.4,0.8,0.3c0.1-0.1-0.1-0.5-0.1-0.8
		c0-0.3,0.7-0.4,1.7-0.7c0.8-0.3,1.5-0.6,1.7-0.6c0.2,0,0.3,0.5,0.5,0.5c0.1,0,0.2-0.7,0.5-0.7c0.3,0,0.8,0.4,1,0.3
		c0.1-0.1-0.3-0.6,0-0.9c0.2-0.1,0.8-0.5,0.8-0.6c0-0.1-1.1-0.1-1.1-0.1c-0.2-0.1-0.4-0.7-0.6-0.7c-0.2,0-0.2,0.6-0.4,0.8
		c-0.2,0.2-0.8-0.6-1.1-0.6c-0.1,0,0.2,0.6,0.2,1c0,0.5-2.8,1.3-3.2,1.3c-0.6,0-0.6-0.7-0.7-0.7c-0.2,0-0.2,0.9-0.8,0.9
		c-0.3,0-0.4-0.2-0.4-0.4v-6.9c0-0.2,0.1-0.5,0.4-0.5c0.5,0,0.5,1,0.7,1c0.3,0,0.5-1.1,1.1-1.1c0.5,0,0.8,0.6,1.1,0.6
		c0.2,0-0.3-0.7-0.3-1C130,36.1,132.8,36.2,133.9,34.2 M115.9,44.8c-0.5,0-0.7-0.9-0.9-0.9c-0.1,0,0,0.8-0.1,0.9
		c-0.1,0.1-3.2-1.3-3.4-1.5c-0.2-0.2,0.1-0.5,0-0.7c-0.1-0.2-0.5-0.1-0.7-0.2c-0.1-0.1,0.1-0.6,0-0.7c-0.1-0.1-0.5,0.5-0.7,0.2
		c-0.1-0.1-0.1-0.3-0.1-0.6c0-1.8,1.9-2.5,3.1-2.9c0.5-0.2,0.3,0.5,0.5,0.5c0.2,0.1,0.2-0.3,0.5-0.3c0.2,0,0.8,0.3,1,0.2
		c0.1-0.1-0.3-0.5-0.2-0.7c0.2-0.1,1.5-0.4,1.5-0.1l0,6.1C116.4,44.9,115.9,44.8,115.9,44.8 M119.1,20c0-4,5.9-6.2,6.3-8.2
		c0.4,0.4,0.5,1.1,0.5,1.6c0,2.4-4.2,6.5-4.2,9.4c0,0.3,0,0.4,0,0.6c0,0.3-0.1,0.3-0.2,0.3C120.9,23.8,119.1,22.4,119.1,20
		 M125.1,48.9c0,0.6-0.2,0.7-0.7,0.6l-5.5-1.1c-0.3-0.1-0.5-0.3-0.5-0.6v-9.9c0-0.3,0.9-0.3,1-0.2c0.3,0.2,0.2,1.1,0.3,1.1
		c0.2,0,0.8-1,1.1-1c0.5,0,0.9,0.3,1,0.3c0.1-0.1,0.1-0.5,0.3-0.6c0.2-0.1,0.8-0.1,1.1-0.2c0.5,0,1.5-0.1,1.5-0.1
		c0.4,0,0.3,0.3,0.3,0.8V48.9z M121.9,36.5c-0.2-0.3-0.1-0.8-0.3-0.8c-0.1,0-0.5,0.7-0.8,0.7c-0.3,0-0.7-0.5-0.9-0.5
		c-0.1,0,0.1,0.7-0.1,1c-0.1,0.2-1.5,0.3-1.5,0.2v-9.8c0-0.5,0.3-0.6,0.7-0.6l5.1,0c0.6,0,0.9,0.2,0.9,0.9l0,8.8
		C125.1,36.6,122,36.7,121.9,36.5 M129.8,35.5c-0.2-0.1-0.2-0.7-0.3-0.7c-0.2,0-0.3,0.6-0.6,0.7c-0.3,0.1-0.9-0.4-1-0.3
		c-0.1,0.1,0.3,0.9-0.5,0.9c-0.2,0-0.4-0.3-0.4-0.5v-6.3c0,0,0,0,0.4,0.1c0.2,0.1,0.5,0.2,0.5,0.5c0,0.2-0.1,0.5,0.1,0.6
		c0.1,0.1,0.2-0.1,0.3-0.1c1.1-0.8,1.3,0.6,1.5,0.6c0.2,0,0.2-0.9,0.5-0.9c0.2-0.1,2.4,1,2.4,1.7c0,0.1-0.3,0.2-0.3,0.3
		c0,0.2,0.5,0.3,0.4,0.7c0,0.2-0.5,0.5-0.4,0.7c0.1,0.1,0.8-0.1,0.9-0.1c0.1,0,0.2,0.2,0.2,0.3C133.4,34.8,130.4,35.8,129.8,35.5"/>
	<rect x="15.4" y="37.7" class="st0" width="1.8" height="10.7"/>
	<polygon class="st0" points="18.9,48.4 18.9,37.7 20.6,37.7 22.8,43.8 22.9,43.8 22.9,37.7 24.5,37.7 24.5,48.4 22.9,48.4 
		20.6,41.7 20.6,41.7 20.6,48.4 	"/>
	<polygon class="st0" points="27.1,39.3 25.3,39.3 25.3,37.7 30.7,37.7 30.7,39.3 28.9,39.3 28.9,48.4 27.1,48.4 	"/>
	<polygon class="st0" points="31.5,48.4 31.5,37.7 36.4,37.7 36.4,39.3 33.4,39.3 33.4,42 35.7,42 35.7,43.6 33.4,43.6 33.4,46.8 
		36.7,46.8 36.7,48.4 	"/>
	<path class="st0" d="M39.7,42.5h0.7c0.2,0,0.5,0,0.6-0.1c0.2,0,0.3-0.1,0.4-0.3c0.1-0.1,0.2-0.3,0.2-0.5c0-0.2,0.1-0.5,0.1-0.8
		c0-0.6-0.1-1.1-0.3-1.3c-0.2-0.2-0.6-0.3-1.1-0.3h-0.7V42.5z M39.7,48.4h-1.8V37.7h2.6c1,0,1.8,0.2,2.3,0.7
		c0.5,0.5,0.8,1.3,0.8,2.4c0,0.4,0,0.8-0.1,1.1c-0.1,0.3-0.2,0.6-0.3,0.8c-0.1,0.2-0.3,0.4-0.4,0.5c-0.2,0.1-0.3,0.2-0.5,0.3
		l1.6,4.8h-1.9L40.6,44c-0.1,0-0.3,0-0.4,0c-0.2,0-0.3,0-0.5,0V48.4z"/>
	<polygon class="st0" points="45,48.4 45,37.7 46.7,37.7 48.9,43.8 48.9,43.8 48.9,37.7 50.6,37.7 50.6,48.4 49,48.4 46.7,41.7 
		46.6,41.7 46.6,48.4 	"/>
	<path class="st0" d="M54,44.4h1.5l-0.7-4.6h0L54,44.4z M53.4,48.4h-1.8l2-10.7h2.3l2,10.7h-1.8L55.7,46h-2L53.4,48.4z"/>
	<polygon class="st0" points="59.5,39.3 57.7,39.3 57.7,37.7 63.1,37.7 63.1,39.3 61.3,39.3 61.3,48.4 59.5,48.4 	"/>
	<rect x="64.1" y="37.7" class="st0" width="1.8" height="10.7"/>
	<path class="st0" d="M69.2,45.8c0,0.4,0.1,0.7,0.2,0.9c0.1,0.2,0.4,0.3,0.8,0.3c0.4,0,0.6-0.1,0.8-0.3c0.1-0.2,0.2-0.5,0.2-0.9
		v-5.4c0-0.4-0.1-0.7-0.2-0.9c-0.1-0.2-0.4-0.3-0.8-0.3c-0.4,0-0.6,0.1-0.8,0.3c-0.1,0.2-0.2,0.5-0.2,0.9V45.8z M67.4,40.3
		c0-0.4,0.1-0.7,0.2-1.1c0.1-0.3,0.3-0.6,0.5-0.9c0.2-0.2,0.5-0.4,0.9-0.6c0.4-0.1,0.8-0.2,1.3-0.2c0.5,0,0.9,0.1,1.3,0.2
		c0.4,0.1,0.6,0.3,0.9,0.6c0.2,0.2,0.4,0.5,0.5,0.9c0.1,0.3,0.2,0.7,0.2,1.1v5.5c0,0.4-0.1,0.7-0.2,1.1c-0.1,0.3-0.3,0.6-0.5,0.9
		c-0.2,0.2-0.5,0.4-0.9,0.6c-0.4,0.1-0.8,0.2-1.3,0.2c-0.5,0-0.9-0.1-1.3-0.2c-0.4-0.1-0.6-0.3-0.9-0.6c-0.2-0.2-0.4-0.5-0.5-0.9
		c-0.1-0.3-0.2-0.7-0.2-1.1V40.3z"/>
	<polygon class="st0" points="74.4,48.4 74.4,37.7 76.1,37.7 78.4,43.8 78.4,43.8 78.4,37.7 80.1,37.7 80.1,48.4 78.5,48.4 
		76.1,41.7 76.1,41.7 76.1,48.4 	"/>
	<path class="st0" d="M83.3,44.4h1.5l-0.7-4.6h0L83.3,44.4z M82.7,48.4h-1.8l2-10.7h2.3l2,10.7h-1.8L85.1,46h-2L82.7,48.4z"/>
	<polygon class="st0" points="87.9,48.4 87.9,37.7 89.8,37.7 89.8,46.8 92.7,46.8 92.7,48.4 	"/>
</g>
</svg>
