<?xml version="1.0" encoding="utf-8"?>
<!-- Generator: Adobe Illustrator 22.0.1, SVG Export Plug-In . SVG Version: 6.00 Build 0)  -->
<svg version="1.1" id="Layer_1" xmlns="http://www.w3.org/2000/svg" xmlns:xlink="http://www.w3.org/1999/xlink" x="0px" y="0px"
	 width="33.8px" height="35px" viewBox="0 0 33.8 35" style="enable-background:new 0 0 33.8 35;" xml:space="preserve">
<g>
	<circle cx="12.3" cy="18" r="2.2"/>
	<circle cx="21.5" cy="18" r="2.2"/>
	<path d="M32.4,14.2c-0.3-0.3-0.9-0.6-1.7-0.8c0-0.6-0.1-1.1-0.1-1.7C29.8,1,22.5,0,16.9,0S4,1.1,3.2,11.8c0,0.6-0.1,1.1-0.1,1.7
		c-0.7,0.1-1.3,0.5-1.6,0.8c-1,0.9-1.4,2.2-1.4,4.3c0,2.6,1,4.1,3.1,4.6C4,28,8.2,35,16.9,35s12.9-7,13.7-11.9
		c2.1-0.4,3.1-2,3.1-4.6C33.8,16.5,33.3,15.1,32.4,14.2z M29.7,20.7c-0.8,0.1-1.4,0.7-1.4,1.4c-0.4,4-3.9,10.3-11.4,10.3
		S6,26.2,5.5,22.1c-0.1-0.8-0.7-1.4-1.4-1.4c-0.9-0.1-1.6-0.1-1.6-2.2c0-1.6,0.4-2.2,0.6-2.4c0.1-0.1,0.3-0.2,0.7-0.2
		c0.1,0.8,0.2,1.5,0.3,1.9c0.2,0.8,1.2,0.7,1.4,0c0.1-0.6,0.6-3.8,2.4-7.1c1,0.8,2.4,1.6,3.9,1.7c0.2,0,0.3-0.2,0.2-0.3
		c-0.3-0.6-0.5-1.4-0.7-2.1c1.3,1.2,3.5,2.8,6.1,2.7c0.2,0,0.3-0.2,0.1-0.3c-0.3-0.4-0.6-1.1-0.8-1.7c1.5,0.9,3.9,2,6.4,1.3
		c0.1,0,0.2-0.3,0.1-0.4c-0.4-0.4-0.9-1-1.3-1.7c1,0.6,2.6,1.2,4.2,1.3c1.7,3.2,2.1,6.3,2.2,6.8c0.1,0.7,1.1,0.8,1.4,0
		c0.1-0.4,0.2-1.1,0.3-1.9c0.5,0,0.7,0.1,0.7,0.2c0.2,0.2,0.6,0.8,0.6,2.4C31.3,20.6,30.7,20.6,29.7,20.7z"/>
	<path d="M20.9,24.3h-8c-0.7,0-1.2,0.5-1.2,1.2c0,0.6,0.5,1.2,1.2,1.2h8c0.7,0,1.2-0.5,1.2-1.2C22.1,24.8,21.6,24.3,20.9,24.3z"/>
</g>
</svg>
