<?xml version="1.0" encoding="utf-8"?>
<!-- Generator: Adobe Illustrator 22.0.1, SVG Export Plug-In . SVG Version: 6.00 Build 0)  -->
<svg version="1.1" id="Layer_1" xmlns="http://www.w3.org/2000/svg" xmlns:xlink="http://www.w3.org/1999/xlink" x="0px" y="0px"
	 width="30px" height="30px" viewBox="0 0 30 30" style="enable-background:new 0 0 30 30;" xml:space="preserve">
<style type="text/css">
	.st0{display:none;fill:#E4E4E4;}
	.st1{fill:#FFFFFF;}
</style>
<g>
	<circle class="st0" cx="15" cy="15" r="15"/>
	<path class="st1" d="M16.7,10.3c-1,0.4-1.7,1.4-1.6,2.4l0,0.4l-0.4-0.1c-1.5-0.2-2.9-0.9-4-2l-0.6-0.6L10,11
		c-0.3,0.9-0.1,1.9,0.5,2.5c0.3,0.4,0.3,0.4-0.3,0.2c-0.2-0.1-0.4-0.1-0.4-0.1c-0.1,0.1,0.1,0.8,0.3,1.1c0.2,0.4,0.7,0.8,1.1,1.1
		l0.4,0.2l-0.5,0c-0.5,0-0.5,0-0.4,0.2c0.2,0.6,0.8,1.1,1.6,1.4l0.5,0.2l-0.5,0.3c-0.7,0.4-1.5,0.6-2.2,0.6c-0.4,0-0.7,0-0.7,0.1
		c0,0.1,1,0.6,1.6,0.7c1.8,0.6,3.9,0.3,5.5-0.6c1.1-0.7,2.3-2,2.8-3.3c0.3-0.7,0.6-1.9,0.6-2.5c0-0.4,0-0.4,0.5-0.9
		c0.3-0.3,0.5-0.6,0.6-0.7c0.1-0.2,0.1-0.2-0.4,0c-0.7,0.3-0.8,0.2-0.5-0.2c0.3-0.3,0.6-0.8,0.6-0.9c0,0-0.1,0-0.3,0.1
		c-0.2,0.1-0.5,0.2-0.7,0.3l-0.5,0.1l-0.4-0.3c-0.2-0.2-0.5-0.3-0.7-0.4C17.8,10.2,17.1,10.2,16.7,10.3z"/>
</g>
</svg>
