<svg version="1.1" id="Layer_1" xmlns="http://www.w3.org/2000/svg" xmlns:xlink="http://www.w3.org/1999/xlink" x="0px" y="0px" width="986px" height="766px" viewBox="0 0 98.6 76.6" xml:space="preserve">
	<style>
		.st1{fill:#009f3d}.st2{fill:#f4c300}.st3{fill:#df0024}.st4{fill:#0085c7}
	</style>
	<defs>
		<rect id="SVGID_1_" width="98.6" height="76.6"/>
	</defs>
	<clipPath id="SVGID_2_">
		<use xlink:href="#SVGID_1_" overflow="visible"/>
	</clipPath>
	<g clip-path="url(#SVGID_2_)">
		<path class="st1" d="M24.7,21.1c4.6,0,9.2,1.8,12.8,5.3l9,9l-9,9c-3.5,3.5-8.1,5.3-12.8,5.3s-9.2-1.8-12.8-5.3l0,0 c-5-5-5-13,0-17.9l0,0C15.5,22.9,20.1,21.1,24.7,21.1 M24.7,12.9c-7,0-13.6,2.7-18.6,7.7C2.2,24.6,0,29.8,0,35.4 C0,41,2.2,46.2,6.1,50.2c5,5,11.6,7.7,18.6,7.7s13.6-2.7,18.6-7.7l9-9l5.8-5.8l-5.8-5.8l-9-9C38.3,15.7,31.7,12.9,24.7,12.9 L24.7,12.9z"/>
		<path d="M24.7,21.1c4.6,0,9.2,1.8,12.8,5.3l9,9l-9,9c-3.5,3.5-8.1,5.3-12.8,5.3s-9.2-1.8-12.8-5.3l0,0c-5-5-5-13,0-17.9l0,0 C15.5,22.9,20.1,21.1,24.7,21.1 M24.7,17c-5.9,0-11.5,2.3-15.7,6.5c-6.5,6.5-6.5,17.2,0,23.8c4.2,4.2,9.7,6.5,15.7,6.5 s11.5-2.3,15.7-6.5l9-9l2.9-2.9l-2.9-2.9l-9-9C36.2,19.3,30.6,17,24.7,17L24.7,17z"/>
		<path class="st2" d="M24.7,25.2c3.7,0,7.2,1.4,9.9,4.1l6.1,6.1l-6.1,6.1c-2.6,2.6-6.1,4.1-9.9,4.1c-3.7,0-7.2-1.5-9.9-4.1 c-1.6-1.6-2.5-3.8-2.5-6.1c0-2.3,0.9-4.4,2.5-6.1C17.5,26.7,21,25.2,24.7,25.2 M24.7,21.1c-4.6,0-9.2,1.8-12.8,5.3l0,0 c-5,5-5,13,0,17.9l0,0c3.5,3.5,8.1,5.3,12.8,5.3s9.2-1.8,12.8-5.3l9-9l-9-9C33.9,22.9,29.3,21.1,24.7,21.1L24.7,21.1z"/>
		<path class="st3" d="M74,21.1c4.6,0,9.2,1.8,12.8,5.3l0,0c5,5,5,13,0,17.9l0,0c-3.5,3.5-8.1,5.3-12.8,5.3 c-4.6,0-9.2-1.8-12.8-5.3l-9-9l9-9C64.7,22.9,69.3,21.1,74,21.1 M74,12.9c-7,0-13.6,2.7-18.6,7.7l-9,9l-5.8,5.8l5.8,5.8l9,9 c5,5,11.6,7.7,18.6,7.7c7,0,13.6-2.7,18.6-7.7c8.1-8.1,8.1-21.4,0-29.6C87.6,15.7,81,12.9,74,12.9L74,12.9z"/>
		<path d="M74,21.1c4.6,0,9.2,1.8,12.8,5.3l0,0c5,5,5,13,0,17.9l0,0c-3.5,3.5-8.1,5.3-12.8,5.3c-4.6,0-9.2-1.8-12.8-5.3l-9-9l9-9 C64.7,22.9,69.3,21.1,74,21.1 M74,17c-5.9,0-11.5,2.3-15.7,6.5l-9,9l-2.9,2.9l2.9,2.9l9,9c4.2,4.2,9.7,6.5,15.7,6.5 c5.9,0,11.5-2.3,15.7-6.5c6.5-6.5,6.5-17.2,0-23.8C85.4,19.3,79.9,17,74,17L74,17z"/>
		<path class="st4" d="M74,25.2c3.7,0,7.2,1.5,9.9,4.1c1.6,1.6,2.5,3.8,2.5,6.1c0,2.3-0.9,4.4-2.5,6.1c-2.6,2.6-6.1,4.1-9.9,4.1 c-3.7,0-7.2-1.5-9.9-4.1L58,35.4l6.1-6.1C66.7,26.7,70.2,25.2,74,25.2 M74,21.1c-4.6,0-9.2,1.8-12.8,5.3l-9,9l9,9 c3.5,3.5,8.1,5.3,12.8,5.3c4.6,0,9.2-1.8,12.8-5.3l0,0c5-5,5-13,0-17.9l0,0C83.2,22.9,78.6,21.1,74,21.1L74,21.1z"/>
		<rect x="69.3" y="40.6" transform="rotate(-45.001 71.378 57.451)" class="st1" width="4.1" height="33.6"/>
		<rect x="66.4" y="43.5" transform="rotate(-45.001 68.474 60.354)" width="4.1" height="33.6"/>
		<rect x="63.5" y="46.4" transform="rotate(-45.001 65.569 63.257)" class="st2" width="4.1" height="33.6"/>
		<g>
			<rect x="10.6" y="55.4" transform="rotate(-45.001 27.313 57.409)" class="st3" width="33.5" height="4.1"/>
			<rect x="13.5" y="58.3" transform="rotate(-45.001 30.216 60.312)" width="33.5" height="4.1"/>
			<rect x="16.4" y="61.2" transform="rotate(-45.001 33.118 63.214)" class="st4" width="33.5" height="4.1"/>
		</g>
		<g>
			<path class="st4" d="M31.9,36.2l1.8-1.8l15.6,15.6l-2.9,2.9L31.9,38.3C31.3,37.7,31.3,36.8,31.9,36.2z"/>
			<path class="st2" d="M37.7,38.3l-2.9-2.9l14.5-14.5c0.6-0.6,1.5-0.6,2.1,0l1.8,1.8L37.7,38.3z"/>
			<path class="st3" d="M36.7,31.4l1.8-1.8c0.6-0.6,1.5-0.6,2.1,0l8.7,8.7l-2.9,2.9L36.7,31.4z"/>
			<rect x="38" y="30.9" transform="rotate(-45.001 40.092 37.778)" width="4.1" height="13.8"/>
			<path class="st2" d="M42.5,51l-1.8-1.8c-0.6-0.6-0.6-1.5,0-2.1l8.7-8.7l2.9,2.9L42.5,51z"/>
			<rect x="46.7" y="40.6" transform="rotate(-134.999 48.802 47.533)" width="4.1" height="13.8"/>
			<path class="st1" d="M47.2,55.7l-1.8-1.8l15.6-15.6l2.9,2.9L49.3,55.7C48.8,56.3,47.8,56.3,47.2,55.7z"/>
			<path class="st3" d="M49.3,26.7l2.9-2.9l14.5,14.5c0.6,0.6,0.6,1.5,0,2.1l-1.8,1.8L49.3,26.7z"/>
			<rect x="56.5" y="31.9" transform="rotate(-45.001 58.557 38.823)" width="4.1" height="13.8"/>
			<path class="st4" d="M49.3,38.3l2.9-2.9l9.8,9.8L60.1,47c-0.6,0.6-1.5,0.6-2.1,0L49.3,38.3z"/>
			<rect x="47.8" y="22.2" transform="rotate(-134.999 49.848 29.067)" width="4.1" height="13.8"/>
			<path class="st1" d="M49.3,38.3l-2.9-2.9l9.8-9.8l1.8,1.8c0.6,0.6,0.6,1.5,0,2.1L49.3,38.3z"/>
		</g>
	</g>
</svg>